<svg xmlns="http://www.w3.org/2000/svg" xmlns:xlink="http://www.w3.org/1999/xlink" xmlns:fi="http://pattern.flaticon.com/" x="0" y="0" width="1080" height="540" viewBox="0 0 1080 540"><rect x="0px" y="0px" width="100%" height="100%" opacity="1" fill="#ffffff"/><defs><g transform="matrix(1.2038750645652807 0.5757663342417546 -0.5757663342417546 1.2038750645652807 155.05452610053638 123.95710109360657)" id="L1_253" fill="none"><path d="m56 4.2v37.8h-54v-37.8c-.02684753-1.08747885.37957166-2.14105099 1.1297856-2.92877562.75021393-.78772463 1.78271977-1.24502378 2.8702144-1.27122438h46c1.0874946.0262006 2.1200005.48349975 2.8702144 1.27122438s1.1566331 1.84129677 1.1297856 2.92877562z" id="L1_238" fill="#67b9cc"/><path d="m56 10.36v31.64h-54v-13.26c9.93-10.25 29.64-25.54 54-18.38z" id="L1_239" fill="#2fa8cc"/><path d="m52 52h-46c-3.3137085 0-6-2.6862915-6-6v-3c0-.5522847.44771525-1 1-1h56c.5522847 0 1 .4477153 1 1v3c0 3.3137085-2.6862915 6-6 6z" id="L1_240" fill="#95a5a5"/><path d="m19 42h20v2c0 1.6568542-1.3431458 3-3 3h-14c-1.6568542 0-3-1.3431458-3-3z" id="L1_241" fill="#7f8c8d"/><path d="m14 47h-3c-.5522847 0-1-.4477153-1-1s.4477153-1 1-1h3c.5522847 0 1 .4477153 1 1s-.4477153 1-1 1z" id="L1_243" fill="#7f8c8d"/><circle cx="5" cy="46" r="1" id="L1_242" fill="#955ba5"/><circle cx="8" cy="46" r="1" id="L1_249" fill="#f0c419"/><g fill="#f29c1f"><path d="m12 29h2c.5522847 0 1 .4477153 1 1v8h-4v-8c0-.5522847.4477153-1 1-1z" id="L1_244"/><path d="m20 24h2c.5522847 0 1 .4477153 1 1v13h-4v-13c0-.5522847.4477153-1 1-1z" id="L1_245"/><path d="m28 29h2c.5522847 0 1 .4477153 1 1v8h-4v-8c0-.5522847.4477153-1 1-1z" id="L1_246"/><path d="m36 24h2c.5522847 0 1 .4477153 1 1v13h-4v-13c0-.5522847.4477153-1 1-1z" id="L1_247"/><path d="m44 32h2c.5522847 0 1 .4477153 1 1v5h-4v-5c0-.5522847.4477153-1 1-1z" id="L1_248"/></g><path d="m41.77 10.62c.7365084.7725966.7365084 1.9874034 0 2.76-2.19 2.29-7.08 6.62-12.77 6.62s-10.58-4.33-12.77-6.62c-.7365084-.7725966-.7365084-1.9874034 0-2.76 2.19-2.29 7.08-6.62 12.77-6.62s10.58 4.33 12.77 6.62z" id="L1_252" fill="#ecf0f1"/><circle cx="29" cy="12" r="8" id="L1_250" fill="#2980ba"/><circle cx="29" cy="12" r="3" id="L1_251" fill="#2c3e50"/><circle cx="31" cy="9" r="2" id="L1_268" fill="#ecf0f1"/><path d="m52 39h-46c-.55228475 0-1-.4477153-1-1v-2c0-.5522847.44771525-1 1-1s1 .4477153 1 1v1h44v-1c0-.5522847.4477153-1 1-1s1 .4477153 1 1v2c0 .5522847-.4477153 1-1 1z" id="L1_255" fill="#f0c419"/></g><path d="M165,0C74.019,0,0,74.019,0,165s74.019,165,165,165c90.982,0,165-74.019,165-165S255.982,0,165,0z" transform="matrix(0.03030303120613098 0 0 0.03030303120613098 257.5 257.5)" id="L1_254" fill="#962742"/><g transform="matrix(1.5517241954803467 0 0 1.5517241954803467 305 305)" id="L1_262" fill="none"><rect x="0px" y="0px" width="34px" height="58px" id="L1_257" fill="#67b9cc"/><path d="m34 11.44v43.56c0 1.6568542-1.3431458 3-3 3h-28c-1.65685425 0-3-1.3431458-3-3v-19.26c4.67-10.74 14.41-24.04 34-24.3z" id="L1_256" fill="#2fa8cc"/><path d="m27 0-2.86 3.05c-.5552143.59345073-1.3274375.93626008-2.14.95h-9.9c-.8375997-.01295328-1.6316336-.37552582-2.19-1l-2.91-3z" id="L1_260" fill="#285680"/><rect x="7px" y="18px" width="8px" height="8px" id="L1_258" fill="#f0c419"/><rect x="19px" y="18px" width="8px" height="8px" id="L1_259" fill="#f29c1f"/><rect x="7px" y="30px" width="8px" height="8px" id="L1_272" fill="#f29c1f"/><path d="m27 33h-3v-3c0-.5522847-.4477153-1-1-1s-1 .4477153-1 1v3h-3c-.5522847 0-1 .4477153-1 1s.4477153 1 1 1h3v3c0 .5522847.4477153 1 1 1s1-.4477153 1-1v-3h3c.5522847 0 1-.4477153 1-1s-.4477153-1-1-1z" id="L1_261" fill="#f0c419"/><path d="m34 50v5c0 1.6568542-1.3431458 3-3 3h-28c-1.65685425 0-3-1.3431458-3-3v-5c0 1.6568542 1.34314575 3 3 3h28c1.6568542 0 3-1.3431458 3-3z" id="L1_263" fill="#285680"/></g><g transform="matrix(0.8993679384630482 -0.3174239789546298 0.3174239789546298 0.8993679384630482 140.4279232863364 333.20762869564527)" id="L1_275" fill="none"><path d="m54 3.6v29.4l-13.87 3h-36.13v-32.4c.01317038-.96806927.41041209-1.89124639 1.10431665-2.56639677s1.62761656-1.04695527 2.59568335-1.03360323h42.6c.9680668-.01335204 1.9017788.35845285 2.5956833 1.03360323.6939046.67515038 1.0911463 1.5983275 1.1043167 2.56639677z" id="L1_264" fill="#35495e"/><path d="m54 11.11v21.89l-13.87 3h-36.13v-10.54c9.81-6.94 28.86-17.59 50-14.35z" id="L1_265" fill="#2c3e50"/><path d="m40 45h-34c-3.31 0-6-2.42-6-5.4v-2.7c.05154198-.5129013.48452193-.9025832 1-.9l39.13-.0000128z" id="L1_266" fill="#95a5a5"/><path d="m22 36h14v2c0 1.6568542-1.3431458 3-3 3h-8c-1.6568542 0-3-1.3431458-3-3z" id="L1_267" fill="#7f8c8d"/><path d="m14 41h-3c-.5522847 0-1-.4477153-1-1s.4477153-1 1-1h3c.5522847 0 1 .4477153 1 1s-.4477153 1-1 1z" id="L1_270" fill="#7f8c8d"/><circle cx="5" cy="40" r="1" id="L1_269" fill="#955ba5"/><circle cx="8" cy="40" r="1" id="L1_273" fill="#f0c419"/><path d="m38.19 8.81c-3.7174425-3.71937433-9.3095041-4.83283715-14.1681003-2.82107997-4.8585963 2.01175718-8.0266754 6.75245617-8.0266754 12.01107997s3.1680791 9.9993228 8.0266754 12.01108c4.8585962 2.0117571 10.4506578.8982943 14.1681003-2.82108 5.0736324-5.076269 5.0736324-13.303731 0-18.38zm-15.55 15.55c-2.9690842-2.9679208-3.491891-7.5943457-1.26-11.15l12.41 12.41c-3.5556543 2.231891-8.1820792 1.7090842-11.15-1.26zm14-1.57-12.43-12.41c3.5556391-2.23624854 8.1853309-1.71559632 11.1554636 1.2545364 2.9701327 2.9701327 3.4907849 7.5998245 1.2545364 11.1554636z" id="L1_271" fill="#e64c3c"/><path d="m54 34c-.5522847 0-1-.4477153-1-1v-5c0-2.209139-1.790861-4-4-4s-4 1.790861-4 4v5c0 .5522847-.4477153 1-1 1s-1-.4477153-1-1v-5c.0000001-3.3137084 2.6862916-5.9999998 6-5.9999998s5.9999999 2.6862914 6 5.9999998v5c0 .5522847-.4477153 1-1 1z" id="L1_274" fill="#bdc3c7"/><rect x="40px" y="33px" width="18px" height="18px" id="L1_276" fill="#f0c419"/><g fill="#e57e25"><circle cx="49" cy="41" r="3" id="Oval"/><path d="m49 47c-.5522847 0-1-.4477153-1-1v-2c0-.5522847.4477153-1 1-1s1 .4477153 1 1v2c0 .5522847-.4477153 1-1 1z" id="L1_277"/></g></g><g transform="matrix(0.6030784923023426 0.2297441853216887 -0.2297441853216887 0.6030784923023426 339.7119322844553 152.28978642810978)" id="L1_282" fill="none"><rect x="4px" y="0px" width="34px" height="58px" id="Rectangle-path" fill="#67b9cc"/><path d="m38 5.74v49.26c0 1.6568542-1.3431458 3-3 3h-28c-1.65685425 0-3-1.3431458-3-3v-16.51c5.31-11.71 15.56-27.12 34-32.75z" id="L1_278" fill="#2fa8cc"/><path d="m31 0-2.86 3.05c-.5552143.59345073-1.3274375.93626008-2.14.95h-9.9c-.8375997-.01295328-1.6316336-.37552582-2.19-1l-2.91-3z" id="L1_279" fill="#285680"/><path d="m42 29v1c-.1426179 3.2858704-1.0646524 6.4907117-2.69 9.35-.3437688.6071488-.7210172 1.1947216-1.13 1.76-3.9356083 5.569271-10.3304844 8.8806972-17.15 8.8806972s-13.21439171-3.3114262-17.15-8.8806972c-.40898275-.5652784-.78623121-1.1528512-1.13-1.76-1.64633248-2.8539881-2.58902486-6.0591421-2.75-9.35 0-.33 0-.66 0-1s0-.67 0-1c.14228671-3.2827679 1.06439577-6.4844403 2.69-9.34.3436935-.6136341.72093177-1.2078678 1.13-1.78 3.93560829-5.569271 10.3304844-8.88069721 17.15-8.88069721s13.2143917 3.31142621 17.15 8.88069721c.4090682.5721322.7863065 1.1663659 1.13 1.78 1.6465913 2.8502505 2.5893603 6.0522369 2.75 9.34z" id="L1_280" fill="#f0c419"/><path d="m38 51v4c0 1.6568542-1.3431458 3-3 3h-28c-1.65685425 0-3-1.3431458-3-3v-4c0 1.6568542 1.34314575 3 3 3h28c1.6568542 0 3-1.3431458 3-3z" id="L1_281" fill="#285680"/><path d="m42 30c0-.33 0-.66 0-1s0-.67 0-1h-9c-.0628835-2.6341682-.3979992-5.2547726-1-7.82 2.4467117-.3694417 4.8705794-.8769181 7.26-1.52-.3436935-.6136341-.7209318-1.2078678-1.13-1.78-2.1874658.5689933-4.4040154 1.0196472-6.64 1.35-1.34-4.46-3.5-7.93-6.13-9.77-2.8877848-.61341093-5.8722152-.61341093-8.76 0-2.63 1.84-4.79 5.31-6.13 9.77-2.23581167-.331338-4.45230866-.7819812-6.64-1.35-.40906823.5721322-.7863065 1.1663659-1.13 1.78 2.40389304.6364328 4.84088727 1.1405233 7.3 1.51-.60134964 2.5687316-.93645207 5.1925836-1 7.83h-9v1 1h9c.06288351 2.6341682.39799916 5.2547726 1 7.82-2.4480963.3661524-4.87234497.8770478-7.26 1.53.34376879.6071488.72101725 1.1947216 1.13 1.76 2.18791721-.5670418 4.40436189-1.0176743 6.64-1.35 1.34 4.46 3.5 7.94 6.13 9.78 2.8877848.6134109 5.8722152.6134109 8.76 0 2.63-1.84 4.79-5.31 6.13-9.77 2.2347837.3328712 4.4510273.7801252 6.64 1.34.4089828-.5652784.7862312-1.1528512 1.13-1.76-2.3992914-.6607213-4.8373231-1.1717061-7.3-1.53.5970235-2.5661247.9320736-5.1862158 1-7.82zm-22 18.9c-3.1-.65-5.83-4.3-7.45-9.41 2.4732663-.2912127 4.9598978-.454763 7.45-.49zm0-11.9c-2.6744455.027817-5.3452588.2047584-8 .53-.5995064-2.4674196-.9347273-4.991633-1-7.53h9zm0-9h-9c.063246-2.5451182.3984854-5.0761756 1-7.55 2.6544957.3305967 5.3252363.5142101 8 .55zm0-9c-2.4900728-.0281806-4.9768988-.1884056-7.45-.48 1.62-5.11 4.35-8.75 7.45-9.4zm2-9.88c3.1.65 5.83 4.29 7.45 9.4-2.4731012.2915944-4.9599272.4518194-7.45.48zm0 39.8v-9.92c2.4900608.0284987 4.9768699.1887227 7.45.48-1.62 5.13-4.35 8.77-7.45 9.42zm8-11.35c-2.6539926-.3386154-5.3248087-.5289111-8-.57v-7h9c-.0645374 2.5450168-.3997587 5.0759374-1 7.55zm-8-9.57v-7c2.6743942-.0291532 5.3451335-.2060896 8-.53.6001039 2.4673076.9353333 4.9915852 1 7.53z" id="Shape" fill="#f29c1f"/></g></defs><g fi:class="KUsePattern"><pattern id="pattern_L1_253" width="350" height="350" patternUnits="userSpaceOnUse"><use xlink:href="#L1_253" x="-350" y="-350"/><use xlink:href="#L1_253" x="0" y="-350"/><use xlink:href="#L1_253" x="350" y="-350"/><use xlink:href="#L1_253" x="-350" y="0"/><use xlink:href="#L1_253" x="0" y="0"/><use xlink:href="#L1_253" x="350" y="0"/><use xlink:href="#L1_253" x="-350" y="350"/><use xlink:href="#L1_253" x="0" y="350"/><use xlink:href="#L1_253" x="350" y="350"/></pattern><rect x="0" y="0" width="100%" height="100%" fill="url(#pattern_L1_253)"/></g><g fi:class="KUsePattern"><pattern id="pattern_L1_254" width="350" height="350" patternUnits="userSpaceOnUse"><use xlink:href="#L1_254" x="-350" y="-350"/><use xlink:href="#L1_254" x="0" y="-350"/><use xlink:href="#L1_254" x="350" y="-350"/><use xlink:href="#L1_254" x="-350" y="0"/><use xlink:href="#L1_254" x="0" y="0"/><use xlink:href="#L1_254" x="350" y="0"/><use xlink:href="#L1_254" x="-350" y="350"/><use xlink:href="#L1_254" x="0" y="350"/><use xlink:href="#L1_254" x="350" y="350"/></pattern><rect x="0" y="0" width="100%" height="100%" fill="url(#pattern_L1_254)"/></g><g fi:class="KUsePattern"><pattern id="pattern_L1_262" width="350" height="350" patternUnits="userSpaceOnUse"><use xlink:href="#L1_262" x="-350" y="-350"/><use xlink:href="#L1_262" x="0" y="-350"/><use xlink:href="#L1_262" x="350" y="-350"/><use xlink:href="#L1_262" x="-350" y="0"/><use xlink:href="#L1_262" x="0" y="0"/><use xlink:href="#L1_262" x="350" y="0"/><use xlink:href="#L1_262" x="-350" y="350"/><use xlink:href="#L1_262" x="0" y="350"/><use xlink:href="#L1_262" x="350" y="350"/></pattern><rect x="0" y="0" width="100%" height="100%" fill="url(#pattern_L1_262)"/></g><g fi:class="KUsePattern"><pattern id="pattern_L1_275" width="350" height="350" patternUnits="userSpaceOnUse"><use xlink:href="#L1_275" x="-350" y="-350"/><use xlink:href="#L1_275" x="0" y="-350"/><use xlink:href="#L1_275" x="350" y="-350"/><use xlink:href="#L1_275" x="-350" y="0"/><use xlink:href="#L1_275" x="0" y="0"/><use xlink:href="#L1_275" x="350" y="0"/><use xlink:href="#L1_275" x="-350" y="350"/><use xlink:href="#L1_275" x="0" y="350"/><use xlink:href="#L1_275" x="350" y="350"/></pattern><rect x="0" y="0" width="100%" height="100%" fill="url(#pattern_L1_275)"/></g><g fi:class="KUsePattern"><pattern id="pattern_L1_282" width="350" height="350" patternUnits="userSpaceOnUse"><use xlink:href="#L1_282" x="-350" y="-350"/><use xlink:href="#L1_282" x="0" y="-350"/><use xlink:href="#L1_282" x="350" y="-350"/><use xlink:href="#L1_282" x="-350" y="0"/><use xlink:href="#L1_282" x="0" y="0"/><use xlink:href="#L1_282" x="350" y="0"/><use xlink:href="#L1_282" x="-350" y="350"/><use xlink:href="#L1_282" x="0" y="350"/><use xlink:href="#L1_282" x="350" y="350"/></pattern><rect x="0" y="0" width="100%" height="100%" fill="url(#pattern_L1_282)"/></g></svg>